M48
; DRILL file {KiCad (5.1.2)-1} date 2021-02-01 7:26:25 PM
; FORMAT={-:-/ absolute / inch / decimal}
; #@! TF.CreationDate,2021-02-01T19:26:25-05:00
; #@! TF.GenerationSoftware,Kicad,Pcbnew,(5.1.2)-1
FMAT,2
INCH
T1C0.0100
T2C0.0197
T3C0.0217
T4C0.0394
T5C0.1260
%
G90
G05
T1
X2.285Y-5.145
X2.285Y-5.17
X2.285Y-5.2
X2.285Y-5.23
X2.285Y-5.255
X2.285Y-5.28
X2.315Y-5.145
X2.315Y-5.17
X2.315Y-5.2
X2.315Y-5.23
X2.315Y-5.255
X2.315Y-5.28
X2.325Y-5.46
X2.345Y-5.23
X2.345Y-5.255
X2.345Y-5.28
X2.3647Y-5.145
X2.3647Y-5.17
X2.375Y-5.23
X2.375Y-5.255
X2.375Y-5.28
X2.3819Y-4.7539
X2.3819Y-4.7539
X2.3819Y-4.7835
X2.3819Y-4.813
X2.3819Y-4.8425
X2.405Y-5.28
X2.4175Y-4.9325
X2.4213Y-4.7539
X2.4213Y-4.7835
X2.4213Y-4.813
X2.4213Y-4.8425
X2.435Y-5.28
X2.4803Y-4.872
X2.4803Y-4.9114
X2.4803Y-4.9508
X2.4803Y-4.9902
X2.4803Y-5.0295
X2.5295Y-4.872
X2.5295Y-4.9114
X2.5295Y-4.9508
X2.5295Y-4.9902
X2.58Y-5.085
X2.5975Y-5.17
X2.6969Y-5.0492
X2.75Y-4.83
X2.76Y-4.435
X2.78Y-4.15
X2.79Y-3.74
X2.795Y-5.21
X2.82Y-5.25
X2.8297Y-3.7953
X2.835Y-4.1525
X2.84Y-5.28
X2.8485Y-4.6605
X2.865Y-5.19
X2.875Y-3.8375
X2.9235Y-4.7855
X2.935Y-4.5675
X2.9635Y-4.5841
X2.9725Y-4.0525
X2.9725Y-4.2
X2.975Y-5.1706
X2.98Y-4.7627
X2.9825Y-4.735
X2.985Y-4.29
X2.985Y-4.325
X2.985Y-4.96
X2.9876Y-4.2305
X3.04Y-5.525
X3.06Y-5.585
X3.0795Y-5.0755
X3.0807Y-3.7598
X3.0842Y-4.8998
X3.085Y-4.78
X3.089Y-4.375
X3.09Y-5.145
X3.095Y-5.908
X3.0975Y-4.205
X3.105Y-4.9425
X3.12Y-4.87
X3.125Y-5.03
X3.1255Y-4.585
X3.1275Y-4.545
X3.13Y-5.279
X3.1305Y-4.3157
X3.1345Y-4.9225
X3.1354Y-4.8145
X3.14Y-5.095
X3.1485Y-4.8455
X3.1491Y-4.6259
X3.1592Y-4.919
X3.1693Y-4.0059
X3.1834Y-4.9255
X3.1975Y-4.0525
X3.205Y-5.25
X3.22Y-4.68
X3.225Y-4.24
X3.23Y-4.28
X3.23Y-4.405
X3.235Y-4.345
X3.244Y-4.612
X3.2579Y-4.6695
X3.265Y-4.44
X3.277Y-4.739
X3.2816Y-4.4827
X3.2939Y-4.7574
X3.3105Y-4.4905
X3.3185Y-4.766
X3.3189Y-3.9646
X3.3285Y-4.937
X3.3332Y-4.43
X3.3449Y-4.764
X3.358Y-4.4
X3.3585Y-4.9355
X3.3606Y-4.7344
X3.365Y-4.225
X3.3653Y-4.0574
X3.395Y-5.125
X3.4Y-4.93
X3.4003Y-4.6555
X3.415Y-4.95
X3.42Y-4.205
X3.42Y-4.23
X3.4285Y-4.6855
X3.4485Y-4.7055
X3.4774Y-4.218
X3.4776Y-4.6396
X3.4835Y-4.0855
X3.4903Y-4.714
X3.4941Y-3.9961
X3.499Y-4.1098
X3.512Y-4.7263
X3.5135Y-4.237
X3.5165Y-4.5125
X3.5221Y-4.0868
X3.54Y-4.4
X3.545Y-4.0
X3.563Y-4.03
X3.5701Y-4.3845
X3.572Y-4.0658
X3.5835Y-4.2255
X3.585Y-4.695
X3.5875Y-5.19
X3.59Y-4.815
X3.5925Y-3.9272
X3.5925Y-4.0059
X3.5975Y-5.0875
X3.5976Y-4.9274
X3.6075Y-4.8425
X3.61Y-4.3645
X3.615Y-4.87
X3.615Y-4.405
X3.615Y-5.2025
X3.6173Y-4.9428
X3.625Y-4.8
X3.64Y-4.25
X3.65Y-4.345
X3.6643Y-4.2443
X3.6775Y-4.71
X3.7196Y-4.8
X3.7235Y-4.5105
X3.7356Y-4.9144
X3.7386Y-4.7804
X3.745Y-4.4447
X3.745Y-4.61
X3.745Y-4.885
X3.7535Y-4.3055
X3.755Y-4.265
X3.765Y-4.745
X3.7775Y-5.25
X3.785Y-4.425
X3.785Y-4.725
X3.7894Y-3.7303
X3.794Y-4.5479
X3.8124Y-4.2708
X3.8132Y-4.7304
X3.8197Y-4.7578
X3.82Y-4.245
X3.8227Y-4.7855
X3.8233Y-4.892
X3.825Y-4.9225
X3.8255Y-4.5525
X3.8287Y-3.9567
X3.83Y-4.03
X3.8323Y-4.19
X3.8386Y-5.2559
X3.865Y-5.1125
X3.9211Y-4.1975
X3.9225Y-4.76
X3.9325Y-4.1675
X3.935Y-4.7875
X3.9375Y-4.115
X3.9427Y-4.1447
X3.9625Y-4.9
X3.9635Y-4.5605
X3.9725Y-4.4175
X3.9735Y-4.5905
X3.9735Y-4.4897
X3.975Y-4.2
X3.9785Y-4.3925
X3.9975Y-4.6025
X4.0115Y-4.7879
X4.0135Y-4.8161
X4.025Y-4.2
X4.07Y-4.8161
X4.12Y-4.115
X4.1275Y-4.845
X4.1375Y-4.1575
X4.1635Y-5.0355
X4.1725Y-4.9732
X4.1725Y-5.1575
X4.1875Y-4.1225
X4.2Y-4.165
X4.2055Y-5.09
X4.225Y-5.4025
X4.2452Y-5.4202
X4.2675Y-5.4625
X4.2675Y-5.54
X4.2675Y-5.5825
X4.285Y-4.6825
X4.2875Y-5.4875
X4.29Y-5.6975
X4.3075Y-5.7325
X4.31Y-5.505
X4.315Y-5.21
X4.3235Y-4.9555
X4.3375Y-5.5225
X4.3379Y-5.0531
X4.3442Y-5.0222
X4.36Y-5.5475
X4.3625Y-4.63
X4.365Y-4.87
X4.3827Y-5.1979
X4.385Y-5.585
X4.39Y-4.92
X4.405Y-4.6275
X4.41Y-5.6166
X4.4155Y-5.1415
X4.425Y-4.375
X4.425Y-4.925
X4.4325Y-5.175
X4.4425Y-5.6425
X4.4585Y-4.8555
X4.46Y-5.19
X4.4947Y-5.2034
X4.495Y-4.85
X4.515Y-4.925
X4.5375Y-4.95
X4.54Y-4.9
X4.5435Y-4.3555
X4.545Y-4.325
X4.55Y-4.755
X4.5535Y-4.2655
X4.555Y-4.295
X4.5685Y-4.9255
X4.575Y-5.0175
X4.5835Y-4.2155
X4.5859Y-4.3941
X4.5925Y-4.9045
X4.595Y-4.01
X4.6Y-4.14
X4.6Y-4.44
X4.61Y-4.6
X4.6135Y-4.0955
X4.6224Y-4.9107
X4.625Y-4.4275
X4.6335Y-5.1955
X4.635Y-4.6371
X4.64Y-4.145
X4.65Y-4.555
X4.6509Y-4.4131
X4.6635Y-4.9405
X4.6726Y-4.43
X4.6735Y-5.0005
X4.6916Y-4.4463
X4.7375Y-4.4175
X4.7375Y-4.845
X4.75Y-4.195
X4.7625Y-4.4125
X4.7675Y-5.1855
X4.775Y-4.75
X4.7794Y-4.6212
X4.7975Y-4.66
X4.8Y-4.3025
X4.8071Y-4.9176
X4.8225Y-4.16
X4.825Y-4.105
X4.825Y-4.3175
X4.8335Y-4.2105
X4.86Y-4.2925
X4.8738Y-4.6887
X4.88Y-4.605
X4.8848Y-4.2386
X4.9Y-4.7275
X4.945Y-4.605
X4.9524Y-5.335
X4.9525Y-4.4425
X4.9725Y-4.465
X4.9775Y-4.2775
X4.9925Y-4.6875
X5.0Y-4.8975
X5.005Y-4.3475
X5.0075Y-4.3175
X5.01Y-4.2425
X5.025Y-5.21
X5.04Y-4.4875
X5.0497Y-4.2078
X5.06Y-4.025
X5.06Y-4.075
X5.06Y-4.47
X5.0725Y-4.225
X5.0825Y-4.4425
X5.1165Y-4.315
X5.2088Y-5.4806
X5.2855Y-5.7254
X5.53Y-5.7269
X5.725Y-5.8
T4
X5.18Y-3.855
X5.28Y-3.855
X5.38Y-3.855
X5.48Y-3.855
X5.58Y-3.855
X5.68Y-3.855
X5.32Y-5.04
X5.42Y-5.04
X5.52Y-5.04
X3.0975Y-6.0294
X3.1975Y-6.0294
X3.2975Y-6.0294
X3.3975Y-6.0294
X3.4975Y-6.0294
X3.5975Y-6.0294
X3.075Y-5.68
X3.175Y-5.68
X3.275Y-5.68
X3.375Y-5.68
X4.1925Y-4.26
X4.1925Y-4.36
X4.1925Y-4.46
X4.1925Y-4.56
X2.59Y-5.39
X2.69Y-5.39
X5.18Y-4.0575
X5.28Y-4.0575
X5.38Y-4.0575
X5.48Y-4.0575
X5.58Y-4.0575
X5.68Y-4.0575
X3.0975Y-5.8394
X3.1975Y-5.8394
X3.2975Y-5.8394
X3.3975Y-5.8394
X3.4975Y-5.8394
X3.5975Y-5.8394
X5.18Y-4.2612
X5.28Y-4.2612
X5.38Y-4.2612
X5.48Y-4.2612
X5.58Y-4.2612
X5.68Y-4.2612
X5.32Y-5.24
X5.42Y-5.24
X5.52Y-5.24
X5.18Y-4.8575
X5.28Y-4.8575
X5.38Y-4.8575
X5.48Y-4.8575
X5.58Y-4.8575
X5.68Y-4.8575
X4.645Y-3.68
X4.745Y-3.68
X3.96Y-3.68
X4.06Y-3.68
X4.16Y-3.68
X4.26Y-3.68
X4.36Y-3.68
X4.46Y-3.68
X4.0514Y-4.2602
X4.0514Y-4.3602
X4.0514Y-4.4602
X4.0514Y-4.5602
X4.07Y-4.745
X4.17Y-4.745
X3.1075Y-5.505
X3.2075Y-5.505
X3.3075Y-5.505
X3.4075Y-5.505
X3.82Y-5.83
X3.92Y-5.83
X4.02Y-5.83
X4.12Y-5.83
X2.69Y-3.63
X2.79Y-3.63
X2.89Y-3.63
X2.99Y-3.63
X3.09Y-3.63
X3.19Y-3.63
X3.29Y-3.63
X3.39Y-3.63
X2.5Y-4.78
X2.6Y-4.78
X5.18Y-4.465
X5.28Y-4.465
X5.38Y-4.465
X5.48Y-4.465
X5.58Y-4.465
X5.68Y-4.465
X5.32Y-5.415
X5.42Y-5.415
X5.52Y-5.415
X5.62Y-5.415
X5.175Y-3.665
X5.275Y-3.665
X5.375Y-3.665
X5.475Y-3.665
X3.93Y-3.87
X4.03Y-3.87
X3.61Y-5.4394
X3.71Y-5.4394
X3.81Y-5.4394
X3.91Y-5.4394
X4.01Y-5.4394
X4.11Y-5.4394
X3.61Y-5.635
X3.71Y-5.635
X3.81Y-5.635
X3.91Y-5.635
X4.01Y-5.635
X4.11Y-5.635
X3.82Y-6.0294
X3.92Y-6.0294
X4.02Y-6.0294
X4.12Y-6.0294
X4.5Y-5.48
X4.5Y-5.58
X4.6Y-5.48
X4.6Y-5.58
X2.3325Y-6.0294
X2.4325Y-6.0294
X2.5325Y-6.0294
X2.6325Y-6.0294
X2.7325Y-6.0294
X2.8325Y-6.0294
X5.34Y-6.0019
X5.44Y-6.0019
X5.54Y-6.0019
X2.3325Y-5.8394
X2.4325Y-5.8394
X2.5325Y-5.8394
X2.6325Y-5.8394
X2.7325Y-5.8394
X2.8325Y-5.8394
X4.32Y-5.89
X4.42Y-5.89
X4.52Y-5.89
X4.62Y-5.89
X2.3325Y-5.665
X2.4325Y-5.665
X2.5325Y-5.665
X2.6325Y-5.665
X2.7325Y-5.665
X2.8325Y-5.665
X4.3225Y-6.03
X4.4225Y-6.03
X4.5225Y-6.03
X4.6225Y-6.03
X5.18Y-4.6612
X5.28Y-4.6612
X5.38Y-4.6612
X5.48Y-4.6612
X5.58Y-4.6612
X5.68Y-4.6612
T5
X2.0866Y-3.563
X2.0866Y-6.0827
X5.7874Y-3.563
X5.7874Y-6.0827
T2
G00X4.8022Y-5.9978
M15
G01X4.8022Y-5.9722
M16
G05
G00X5.0778Y-5.9978
M15
G01X5.0778Y-5.9722
M16
G05
T3
G00X4.8357Y-5.8787
M15
G01X4.8475Y-5.8787
M16
G05
G00X5.0325Y-5.8787
M15
G01X5.0443Y-5.8787
M16
G05
T0
M30
