G04 #@! TF.GenerationSoftware,KiCad,Pcbnew,(5.1.2)-1*
G04 #@! TF.CreationDate,2021-02-01T19:25:34-05:00*
G04 #@! TF.ProjectId,ZP-Breakout,5a502d42-7265-4616-9b6f-75742e6b6963,rev?*
G04 #@! TF.SameCoordinates,Original*
G04 #@! TF.FileFunction,Legend,Bot*
G04 #@! TF.FilePolarity,Positive*
%FSLAX46Y46*%
G04 Gerber Fmt 4.6, Leading zero omitted, Abs format (unit mm)*
G04 Created by KiCad (PCBNEW (5.1.2)-1) date 2021-02-01 19:25:34*
%MOMM*%
%LPD*%
G04 APERTURE LIST*
%ADD10C,0.150000*%
%ADD11C,0.381000*%
%ADD12C,0.100000*%
%ADD13C,0.120000*%
%ADD14C,0.300000*%
%ADD15C,0.304800*%
G04 APERTURE END LIST*
D10*
X107007000Y-144877404D02*
X106959380Y-144782166D01*
X106959380Y-144639309D01*
X107007000Y-144496452D01*
X107102238Y-144401214D01*
X107197476Y-144353595D01*
X107387952Y-144305976D01*
X107530809Y-144305976D01*
X107721285Y-144353595D01*
X107816523Y-144401214D01*
X107911761Y-144496452D01*
X107959380Y-144639309D01*
X107959380Y-144734547D01*
X107911761Y-144877404D01*
X107864142Y-144925023D01*
X107530809Y-144925023D01*
X107530809Y-144734547D01*
X107959380Y-145353595D02*
X106959380Y-145353595D01*
X107959380Y-145925023D01*
X106959380Y-145925023D01*
X107959380Y-146401214D02*
X106959380Y-146401214D01*
X106959380Y-146639309D01*
X107007000Y-146782166D01*
X107102238Y-146877404D01*
X107197476Y-146925023D01*
X107387952Y-146972642D01*
X107530809Y-146972642D01*
X107721285Y-146925023D01*
X107816523Y-146877404D01*
X107911761Y-146782166D01*
X107959380Y-146639309D01*
X107959380Y-146401214D01*
X108609380Y-144353595D02*
X109418904Y-144353595D01*
X109514142Y-144401214D01*
X109561761Y-144448833D01*
X109609380Y-144544071D01*
X109609380Y-144734547D01*
X109561761Y-144829785D01*
X109514142Y-144877404D01*
X109418904Y-144925023D01*
X108609380Y-144925023D01*
X109561761Y-145353595D02*
X109609380Y-145496452D01*
X109609380Y-145734547D01*
X109561761Y-145829785D01*
X109514142Y-145877404D01*
X109418904Y-145925023D01*
X109323666Y-145925023D01*
X109228428Y-145877404D01*
X109180809Y-145829785D01*
X109133190Y-145734547D01*
X109085571Y-145544071D01*
X109037952Y-145448833D01*
X108990333Y-145401214D01*
X108895095Y-145353595D01*
X108799857Y-145353595D01*
X108704619Y-145401214D01*
X108657000Y-145448833D01*
X108609380Y-145544071D01*
X108609380Y-145782166D01*
X108657000Y-145925023D01*
X109561761Y-146305976D02*
X109609380Y-146448833D01*
X109609380Y-146686928D01*
X109561761Y-146782166D01*
X109514142Y-146829785D01*
X109418904Y-146877404D01*
X109323666Y-146877404D01*
X109228428Y-146829785D01*
X109180809Y-146782166D01*
X109133190Y-146686928D01*
X109085571Y-146496452D01*
X109037952Y-146401214D01*
X108990333Y-146353595D01*
X108895095Y-146305976D01*
X108799857Y-146305976D01*
X108704619Y-146353595D01*
X108657000Y-146401214D01*
X108609380Y-146496452D01*
X108609380Y-146734547D01*
X108657000Y-146877404D01*
X109609380Y-147829785D02*
X109609380Y-147258357D01*
X109609380Y-147544071D02*
X108609380Y-147544071D01*
X108752238Y-147448833D01*
X108847476Y-147353595D01*
X108895095Y-147258357D01*
X110259380Y-144353595D02*
X111068904Y-144353595D01*
X111164142Y-144401214D01*
X111211761Y-144448833D01*
X111259380Y-144544071D01*
X111259380Y-144734547D01*
X111211761Y-144829785D01*
X111164142Y-144877404D01*
X111068904Y-144925023D01*
X110259380Y-144925023D01*
X111211761Y-145353595D02*
X111259380Y-145496452D01*
X111259380Y-145734547D01*
X111211761Y-145829785D01*
X111164142Y-145877404D01*
X111068904Y-145925023D01*
X110973666Y-145925023D01*
X110878428Y-145877404D01*
X110830809Y-145829785D01*
X110783190Y-145734547D01*
X110735571Y-145544071D01*
X110687952Y-145448833D01*
X110640333Y-145401214D01*
X110545095Y-145353595D01*
X110449857Y-145353595D01*
X110354619Y-145401214D01*
X110307000Y-145448833D01*
X110259380Y-145544071D01*
X110259380Y-145782166D01*
X110307000Y-145925023D01*
X111211761Y-146305976D02*
X111259380Y-146448833D01*
X111259380Y-146686928D01*
X111211761Y-146782166D01*
X111164142Y-146829785D01*
X111068904Y-146877404D01*
X110973666Y-146877404D01*
X110878428Y-146829785D01*
X110830809Y-146782166D01*
X110783190Y-146686928D01*
X110735571Y-146496452D01*
X110687952Y-146401214D01*
X110640333Y-146353595D01*
X110545095Y-146305976D01*
X110449857Y-146305976D01*
X110354619Y-146353595D01*
X110307000Y-146401214D01*
X110259380Y-146496452D01*
X110259380Y-146734547D01*
X110307000Y-146877404D01*
X110354619Y-147258357D02*
X110307000Y-147305976D01*
X110259380Y-147401214D01*
X110259380Y-147639309D01*
X110307000Y-147734547D01*
X110354619Y-147782166D01*
X110449857Y-147829785D01*
X110545095Y-147829785D01*
X110687952Y-147782166D01*
X111259380Y-147210738D01*
X111259380Y-147829785D01*
X111909380Y-144829785D02*
X111909380Y-144353595D01*
X112385571Y-144305976D01*
X112337952Y-144353595D01*
X112290333Y-144448833D01*
X112290333Y-144686928D01*
X112337952Y-144782166D01*
X112385571Y-144829785D01*
X112480809Y-144877404D01*
X112718904Y-144877404D01*
X112814142Y-144829785D01*
X112861761Y-144782166D01*
X112909380Y-144686928D01*
X112909380Y-144448833D01*
X112861761Y-144353595D01*
X112814142Y-144305976D01*
X111909380Y-145163119D02*
X112909380Y-145496452D01*
X111909380Y-145829785D01*
X112909380Y-146163119D02*
X111909380Y-146163119D01*
X112909380Y-146639309D02*
X111909380Y-146639309D01*
X112909380Y-147210738D01*
X111909380Y-147210738D01*
X106959380Y-139668476D02*
X106959380Y-140239904D01*
X107959380Y-139954190D02*
X106959380Y-139954190D01*
X107959380Y-140573238D02*
X106959380Y-140573238D01*
X107673666Y-140906571D01*
X106959380Y-141239904D01*
X107959380Y-141239904D01*
X107911761Y-141668476D02*
X107959380Y-141811333D01*
X107959380Y-142049428D01*
X107911761Y-142144666D01*
X107864142Y-142192285D01*
X107768904Y-142239904D01*
X107673666Y-142239904D01*
X107578428Y-142192285D01*
X107530809Y-142144666D01*
X107483190Y-142049428D01*
X107435571Y-141858952D01*
X107387952Y-141763714D01*
X107340333Y-141716095D01*
X107245095Y-141668476D01*
X107149857Y-141668476D01*
X107054619Y-141716095D01*
X107007000Y-141763714D01*
X106959380Y-141858952D01*
X106959380Y-142097047D01*
X107007000Y-142239904D01*
X107054619Y-142620857D02*
X107007000Y-142668476D01*
X106959380Y-142763714D01*
X106959380Y-143001809D01*
X107007000Y-143097047D01*
X107054619Y-143144666D01*
X107149857Y-143192285D01*
X107245095Y-143192285D01*
X107387952Y-143144666D01*
X107959380Y-142573238D01*
X107959380Y-143192285D01*
X108609380Y-139692285D02*
X108609380Y-140263714D01*
X109609380Y-139978000D02*
X108609380Y-139978000D01*
X109609380Y-140597047D02*
X108609380Y-140597047D01*
X108609380Y-140835142D01*
X108657000Y-140978000D01*
X108752238Y-141073238D01*
X108847476Y-141120857D01*
X109037952Y-141168476D01*
X109180809Y-141168476D01*
X109371285Y-141120857D01*
X109466523Y-141073238D01*
X109561761Y-140978000D01*
X109609380Y-140835142D01*
X109609380Y-140597047D01*
X108609380Y-141787523D02*
X108609380Y-141978000D01*
X108657000Y-142073238D01*
X108752238Y-142168476D01*
X108942714Y-142216095D01*
X109276047Y-142216095D01*
X109466523Y-142168476D01*
X109561761Y-142073238D01*
X109609380Y-141978000D01*
X109609380Y-141787523D01*
X109561761Y-141692285D01*
X109466523Y-141597047D01*
X109276047Y-141549428D01*
X108942714Y-141549428D01*
X108752238Y-141597047D01*
X108657000Y-141692285D01*
X108609380Y-141787523D01*
X108704619Y-142597047D02*
X108657000Y-142644666D01*
X108609380Y-142739904D01*
X108609380Y-142978000D01*
X108657000Y-143073238D01*
X108704619Y-143120857D01*
X108799857Y-143168476D01*
X108895095Y-143168476D01*
X109037952Y-143120857D01*
X109609380Y-142549428D01*
X109609380Y-143168476D01*
X110259380Y-139668476D02*
X110259380Y-140239904D01*
X111259380Y-139954190D02*
X110259380Y-139954190D01*
X111259380Y-140573238D02*
X110259380Y-140573238D01*
X110973666Y-140906571D01*
X110259380Y-141239904D01*
X111259380Y-141239904D01*
X111211761Y-141668476D02*
X111259380Y-141811333D01*
X111259380Y-142049428D01*
X111211761Y-142144666D01*
X111164142Y-142192285D01*
X111068904Y-142239904D01*
X110973666Y-142239904D01*
X110878428Y-142192285D01*
X110830809Y-142144666D01*
X110783190Y-142049428D01*
X110735571Y-141858952D01*
X110687952Y-141763714D01*
X110640333Y-141716095D01*
X110545095Y-141668476D01*
X110449857Y-141668476D01*
X110354619Y-141716095D01*
X110307000Y-141763714D01*
X110259380Y-141858952D01*
X110259380Y-142097047D01*
X110307000Y-142239904D01*
X111259380Y-143192285D02*
X111259380Y-142620857D01*
X111259380Y-142906571D02*
X110259380Y-142906571D01*
X110402238Y-142811333D01*
X110497476Y-142716095D01*
X110545095Y-142620857D01*
X111909380Y-139692285D02*
X111909380Y-140263714D01*
X112909380Y-139978000D02*
X111909380Y-139978000D01*
X112909380Y-140597047D02*
X111909380Y-140597047D01*
X111909380Y-140835142D01*
X111957000Y-140978000D01*
X112052238Y-141073238D01*
X112147476Y-141120857D01*
X112337952Y-141168476D01*
X112480809Y-141168476D01*
X112671285Y-141120857D01*
X112766523Y-141073238D01*
X112861761Y-140978000D01*
X112909380Y-140835142D01*
X112909380Y-140597047D01*
X111909380Y-141787523D02*
X111909380Y-141978000D01*
X111957000Y-142073238D01*
X112052238Y-142168476D01*
X112242714Y-142216095D01*
X112576047Y-142216095D01*
X112766523Y-142168476D01*
X112861761Y-142073238D01*
X112909380Y-141978000D01*
X112909380Y-141787523D01*
X112861761Y-141692285D01*
X112766523Y-141597047D01*
X112576047Y-141549428D01*
X112242714Y-141549428D01*
X112052238Y-141597047D01*
X111957000Y-141692285D01*
X111909380Y-141787523D01*
X112909380Y-143168476D02*
X112909380Y-142597047D01*
X112909380Y-142882761D02*
X111909380Y-142882761D01*
X112052238Y-142787523D01*
X112147476Y-142692285D01*
X112195095Y-142597047D01*
X107211333Y-112847380D02*
X107211333Y-111847380D01*
X106735142Y-112847380D02*
X106735142Y-111847380D01*
X106401809Y-112561666D01*
X106068476Y-111847380D01*
X106068476Y-112847380D01*
X105592285Y-111847380D02*
X105592285Y-112656904D01*
X105544666Y-112752142D01*
X105497047Y-112799761D01*
X105401809Y-112847380D01*
X105211333Y-112847380D01*
X105116095Y-112799761D01*
X105068476Y-112752142D01*
X105020857Y-112656904D01*
X105020857Y-111847380D01*
X104782761Y-112942619D02*
X104020857Y-112942619D01*
X103449428Y-112323571D02*
X103782761Y-112323571D01*
X103782761Y-112847380D02*
X103782761Y-111847380D01*
X103306571Y-111847380D01*
X102973238Y-112799761D02*
X102830380Y-112847380D01*
X102592285Y-112847380D01*
X102497047Y-112799761D01*
X102449428Y-112752142D01*
X102401809Y-112656904D01*
X102401809Y-112561666D01*
X102449428Y-112466428D01*
X102497047Y-112418809D01*
X102592285Y-112371190D01*
X102782761Y-112323571D01*
X102878000Y-112275952D01*
X102925619Y-112228333D01*
X102973238Y-112133095D01*
X102973238Y-112037857D01*
X102925619Y-111942619D01*
X102878000Y-111895000D01*
X102782761Y-111847380D01*
X102544666Y-111847380D01*
X102401809Y-111895000D01*
X101782761Y-112371190D02*
X101782761Y-112847380D01*
X102116095Y-111847380D02*
X101782761Y-112371190D01*
X101449428Y-111847380D01*
X101116095Y-112847380D02*
X101116095Y-111847380D01*
X100544666Y-112847380D01*
X100544666Y-111847380D01*
X99497047Y-112752142D02*
X99544666Y-112799761D01*
X99687523Y-112847380D01*
X99782761Y-112847380D01*
X99925619Y-112799761D01*
X100020857Y-112704523D01*
X100068476Y-112609285D01*
X100116095Y-112418809D01*
X100116095Y-112275952D01*
X100068476Y-112085476D01*
X100020857Y-111990238D01*
X99925619Y-111895000D01*
X99782761Y-111847380D01*
X99687523Y-111847380D01*
X99544666Y-111895000D01*
X99497047Y-111942619D01*
X105489047Y-106243380D02*
X105489047Y-105243380D01*
X105012857Y-106243380D02*
X105012857Y-105243380D01*
X104679523Y-105957666D01*
X104346190Y-105243380D01*
X104346190Y-106243380D01*
X103870000Y-105243380D02*
X103870000Y-106052904D01*
X103822380Y-106148142D01*
X103774761Y-106195761D01*
X103679523Y-106243380D01*
X103489047Y-106243380D01*
X103393809Y-106195761D01*
X103346190Y-106148142D01*
X103298571Y-106052904D01*
X103298571Y-105243380D01*
X103060476Y-106338619D02*
X102298571Y-106338619D01*
X102060476Y-106243380D02*
X102060476Y-105243380D01*
X101584285Y-106243380D02*
X101584285Y-105243380D01*
X101012857Y-106243380D01*
X101012857Y-105243380D01*
X100679523Y-105243380D02*
X100108095Y-105243380D01*
X100393809Y-106243380D02*
X100393809Y-105243380D01*
X98686809Y-105624380D02*
X98115380Y-105624380D01*
X98401095Y-106624380D02*
X98401095Y-105624380D01*
X97782047Y-106624380D02*
X97782047Y-105624380D01*
X97543952Y-105624380D01*
X97401095Y-105672000D01*
X97305857Y-105767238D01*
X97258238Y-105862476D01*
X97210619Y-106052952D01*
X97210619Y-106195809D01*
X97258238Y-106386285D01*
X97305857Y-106481523D01*
X97401095Y-106576761D01*
X97543952Y-106624380D01*
X97782047Y-106624380D01*
X96782047Y-106624380D02*
X96782047Y-105624380D01*
X141160190Y-135056571D02*
X141017333Y-135104190D01*
X140969714Y-135151809D01*
X140922095Y-135247047D01*
X140922095Y-135389904D01*
X140969714Y-135485142D01*
X141017333Y-135532761D01*
X141112571Y-135580380D01*
X141493523Y-135580380D01*
X141493523Y-134580380D01*
X141160190Y-134580380D01*
X141064952Y-134628000D01*
X141017333Y-134675619D01*
X140969714Y-134770857D01*
X140969714Y-134866095D01*
X141017333Y-134961333D01*
X141064952Y-135008952D01*
X141160190Y-135056571D01*
X141493523Y-135056571D01*
X140350666Y-135580380D02*
X140445904Y-135532761D01*
X140493523Y-135485142D01*
X140541142Y-135389904D01*
X140541142Y-135104190D01*
X140493523Y-135008952D01*
X140445904Y-134961333D01*
X140350666Y-134913714D01*
X140207809Y-134913714D01*
X140112571Y-134961333D01*
X140064952Y-135008952D01*
X140017333Y-135104190D01*
X140017333Y-135389904D01*
X140064952Y-135485142D01*
X140112571Y-135532761D01*
X140207809Y-135580380D01*
X140350666Y-135580380D01*
X139160190Y-135580380D02*
X139160190Y-135056571D01*
X139207809Y-134961333D01*
X139303047Y-134913714D01*
X139493523Y-134913714D01*
X139588761Y-134961333D01*
X139160190Y-135532761D02*
X139255428Y-135580380D01*
X139493523Y-135580380D01*
X139588761Y-135532761D01*
X139636380Y-135437523D01*
X139636380Y-135342285D01*
X139588761Y-135247047D01*
X139493523Y-135199428D01*
X139255428Y-135199428D01*
X139160190Y-135151809D01*
X138684000Y-135580380D02*
X138684000Y-134913714D01*
X138684000Y-135104190D02*
X138636380Y-135008952D01*
X138588761Y-134961333D01*
X138493523Y-134913714D01*
X138398285Y-134913714D01*
X137636380Y-135580380D02*
X137636380Y-134580380D01*
X137636380Y-135532761D02*
X137731619Y-135580380D01*
X137922095Y-135580380D01*
X138017333Y-135532761D01*
X138064952Y-135485142D01*
X138112571Y-135389904D01*
X138112571Y-135104190D01*
X138064952Y-135008952D01*
X138017333Y-134961333D01*
X137922095Y-134913714D01*
X137731619Y-134913714D01*
X137636380Y-134961333D01*
X136445904Y-134913714D02*
X135731619Y-134913714D01*
X136160190Y-134485142D02*
X136445904Y-135770857D01*
X135826857Y-135342285D02*
X136541142Y-135342285D01*
X136112571Y-135770857D02*
X135826857Y-134485142D01*
D11*
X87981064Y-122627571D02*
X87073921Y-126437571D01*
X86348207Y-123716142D01*
X85622492Y-126437571D01*
X84715350Y-122627571D01*
X83445350Y-125349000D02*
X81631064Y-125349000D01*
X83808207Y-126437571D02*
X82538207Y-122627571D01*
X81268207Y-126437571D01*
X77821064Y-126437571D02*
X79091064Y-124623285D01*
X79998207Y-126437571D02*
X79998207Y-122627571D01*
X78546778Y-122627571D01*
X78183921Y-122809000D01*
X78002492Y-122990428D01*
X77821064Y-123353285D01*
X77821064Y-123897571D01*
X78002492Y-124260428D01*
X78183921Y-124441857D01*
X78546778Y-124623285D01*
X79998207Y-124623285D01*
X74192492Y-122809000D02*
X74555350Y-122627571D01*
X75099635Y-122627571D01*
X75643921Y-122809000D01*
X76006778Y-123171857D01*
X76188207Y-123534714D01*
X76369635Y-124260428D01*
X76369635Y-124804714D01*
X76188207Y-125530428D01*
X76006778Y-125893285D01*
X75643921Y-126256142D01*
X75099635Y-126437571D01*
X74736778Y-126437571D01*
X74192492Y-126256142D01*
X74011064Y-126074714D01*
X74011064Y-124804714D01*
X74736778Y-124804714D01*
X87981064Y-128723571D02*
X85441064Y-128723571D01*
X87981064Y-132533571D01*
X85441064Y-132533571D01*
X83989635Y-132533571D02*
X83989635Y-128723571D01*
X82538207Y-128723571D01*
X82175350Y-128905000D01*
X81993921Y-129086428D01*
X81812492Y-129449285D01*
X81812492Y-129993571D01*
X81993921Y-130356428D01*
X82175350Y-130537857D01*
X82538207Y-130719285D01*
X83989635Y-130719285D01*
X80179635Y-131082142D02*
X77276778Y-131082142D01*
X74192492Y-130537857D02*
X73648207Y-130719285D01*
X73466778Y-130900714D01*
X73285350Y-131263571D01*
X73285350Y-131807857D01*
X73466778Y-132170714D01*
X73648207Y-132352142D01*
X74011064Y-132533571D01*
X75462492Y-132533571D01*
X75462492Y-128723571D01*
X74192492Y-128723571D01*
X73829635Y-128905000D01*
X73648207Y-129086428D01*
X73466778Y-129449285D01*
X73466778Y-129812142D01*
X73648207Y-130175000D01*
X73829635Y-130356428D01*
X74192492Y-130537857D01*
X75462492Y-130537857D01*
X71652492Y-132533571D02*
X71652492Y-129993571D01*
X71652492Y-130719285D02*
X71471064Y-130356428D01*
X71289635Y-130175000D01*
X70926778Y-129993571D01*
X70563921Y-129993571D01*
X67842492Y-132352142D02*
X68205350Y-132533571D01*
X68931064Y-132533571D01*
X69293921Y-132352142D01*
X69475350Y-131989285D01*
X69475350Y-130537857D01*
X69293921Y-130175000D01*
X68931064Y-129993571D01*
X68205350Y-129993571D01*
X67842492Y-130175000D01*
X67661064Y-130537857D01*
X67661064Y-130900714D01*
X69475350Y-131263571D01*
X64395350Y-132533571D02*
X64395350Y-130537857D01*
X64576778Y-130175000D01*
X64939635Y-129993571D01*
X65665350Y-129993571D01*
X66028207Y-130175000D01*
X64395350Y-132352142D02*
X64758207Y-132533571D01*
X65665350Y-132533571D01*
X66028207Y-132352142D01*
X66209635Y-131989285D01*
X66209635Y-131626428D01*
X66028207Y-131263571D01*
X65665350Y-131082142D01*
X64758207Y-131082142D01*
X64395350Y-130900714D01*
X62581064Y-132533571D02*
X62581064Y-128723571D01*
X62218207Y-131082142D02*
X61129635Y-132533571D01*
X61129635Y-129993571D02*
X62581064Y-131445000D01*
X58952492Y-132533571D02*
X59315350Y-132352142D01*
X59496778Y-132170714D01*
X59678207Y-131807857D01*
X59678207Y-130719285D01*
X59496778Y-130356428D01*
X59315350Y-130175000D01*
X58952492Y-129993571D01*
X58408207Y-129993571D01*
X58045350Y-130175000D01*
X57863921Y-130356428D01*
X57682492Y-130719285D01*
X57682492Y-131807857D01*
X57863921Y-132170714D01*
X58045350Y-132352142D01*
X58408207Y-132533571D01*
X58952492Y-132533571D01*
X54416778Y-129993571D02*
X54416778Y-132533571D01*
X56049635Y-129993571D02*
X56049635Y-131989285D01*
X55868207Y-132352142D01*
X55505350Y-132533571D01*
X54961064Y-132533571D01*
X54598207Y-132352142D01*
X54416778Y-132170714D01*
X53146778Y-129993571D02*
X51695350Y-129993571D01*
X52602492Y-128723571D02*
X52602492Y-131989285D01*
X52421064Y-132352142D01*
X52058207Y-132533571D01*
X51695350Y-132533571D01*
D12*
G36*
X141502000Y-148476000D02*
G01*
X129502000Y-148476000D01*
X129502000Y-136476000D01*
X141502000Y-136476000D01*
X141502000Y-148476000D01*
G37*
X141502000Y-148476000D02*
X129502000Y-148476000D01*
X129502000Y-136476000D01*
X141502000Y-136476000D01*
X141502000Y-148476000D01*
D13*
G04 #@! TO.C,R26*
X111502000Y-103770000D02*
X111942000Y-103770000D01*
X111502000Y-104790000D02*
X111942000Y-104790000D01*
G04 #@! TO.C,R25*
X111942000Y-103393000D02*
X111502000Y-103393000D01*
X111942000Y-102373000D02*
X111502000Y-102373000D01*
G04 #@! TO.C,R24*
X111502000Y-106564000D02*
X111942000Y-106564000D01*
X111502000Y-107584000D02*
X111942000Y-107584000D01*
G04 #@! TO.C,R23*
X111942000Y-106187000D02*
X111502000Y-106187000D01*
X111942000Y-105167000D02*
X111502000Y-105167000D01*
G04 #@! TO.C,R22*
X111502000Y-109358000D02*
X111942000Y-109358000D01*
X111502000Y-110378000D02*
X111942000Y-110378000D01*
G04 #@! TO.C,R21*
X111942000Y-108981000D02*
X111502000Y-108981000D01*
X111942000Y-107961000D02*
X111502000Y-107961000D01*
G04 #@! TO.C,TP5*
X80922000Y-110757000D02*
G75*
G03X80922000Y-110757000I-950000J0D01*
G01*
G04 #@! TO.C,TP4*
X80922000Y-112789000D02*
G75*
G03X80922000Y-112789000I-950000J0D01*
G01*
G04 #@! TO.C,TP3*
X98829000Y-109487000D02*
G75*
G03X98829000Y-109487000I-950000J0D01*
G01*
G04 #@! TO.C,TP2*
X101153000Y-110363000D02*
G75*
G03X101153000Y-110363000I-950000J0D01*
G01*
G04 #@! TO.C,TP1*
X101153000Y-107950000D02*
G75*
G03X101153000Y-107950000I-950000J0D01*
G01*
D11*
G04 #@! TO.C,J8*
X81699100Y-115585240D02*
X81699100Y-100584000D01*
X96100900Y-115585240D02*
X81699100Y-115585240D01*
X96100900Y-100584000D02*
X96100900Y-115585240D01*
X85999320Y-115585240D02*
X85999320Y-116484400D01*
X87099140Y-116484400D02*
X87099140Y-115585240D01*
X88198960Y-116484400D02*
X88198960Y-115684300D01*
X89298780Y-116484400D02*
X89298780Y-115585240D01*
X90401140Y-116484400D02*
X90401140Y-115585240D01*
X91500960Y-116484400D02*
X91500960Y-115585240D01*
X92600780Y-116484400D02*
X92600780Y-115585240D01*
X93700600Y-116484400D02*
X93700600Y-115585240D01*
X95600520Y-116484400D02*
X95600520Y-115585240D01*
X94599760Y-115585240D02*
X94599760Y-116484400D01*
X94599760Y-116484400D02*
X95600520Y-116484400D01*
X81899760Y-115585240D02*
X81899760Y-116586000D01*
X82999580Y-116586000D02*
X82999580Y-115585240D01*
X82999580Y-116586000D02*
X81899760Y-116586000D01*
X83700620Y-116586000D02*
X83700620Y-115585240D01*
X85199220Y-116586000D02*
X83700620Y-116586000D01*
X85199220Y-115585240D02*
X85199220Y-116586000D01*
X93599000Y-100584000D02*
X93299280Y-100985320D01*
X84201000Y-100584000D02*
X81699100Y-100584000D01*
X93599000Y-100584000D02*
X96100900Y-100584000D01*
X84498180Y-100985320D02*
X84198460Y-100584000D01*
X86700360Y-100985320D02*
X84500720Y-100985320D01*
X90700860Y-101384100D02*
X91800680Y-101285040D01*
X89400380Y-101384100D02*
X90700860Y-101384100D01*
X87500460Y-101185980D02*
X89400380Y-101384100D01*
X86700360Y-100985320D02*
X87500460Y-101185980D01*
X91800680Y-101285040D02*
X93299280Y-100985320D01*
D14*
X85451681Y-114503200D02*
G75*
G03X85451681Y-114503200I-158481J0D01*
G01*
G04 #@! TO.C,R26*
D10*
X109100857Y-104846380D02*
X109434190Y-104370190D01*
X109672285Y-104846380D02*
X109672285Y-103846380D01*
X109291333Y-103846380D01*
X109196095Y-103894000D01*
X109148476Y-103941619D01*
X109100857Y-104036857D01*
X109100857Y-104179714D01*
X109148476Y-104274952D01*
X109196095Y-104322571D01*
X109291333Y-104370190D01*
X109672285Y-104370190D01*
X108719904Y-103941619D02*
X108672285Y-103894000D01*
X108577047Y-103846380D01*
X108338952Y-103846380D01*
X108243714Y-103894000D01*
X108196095Y-103941619D01*
X108148476Y-104036857D01*
X108148476Y-104132095D01*
X108196095Y-104274952D01*
X108767523Y-104846380D01*
X108148476Y-104846380D01*
X107291333Y-103846380D02*
X107481809Y-103846380D01*
X107577047Y-103894000D01*
X107624666Y-103941619D01*
X107719904Y-104084476D01*
X107767523Y-104274952D01*
X107767523Y-104655904D01*
X107719904Y-104751142D01*
X107672285Y-104798761D01*
X107577047Y-104846380D01*
X107386571Y-104846380D01*
X107291333Y-104798761D01*
X107243714Y-104751142D01*
X107196095Y-104655904D01*
X107196095Y-104417809D01*
X107243714Y-104322571D01*
X107291333Y-104274952D01*
X107386571Y-104227333D01*
X107577047Y-104227333D01*
X107672285Y-104274952D01*
X107719904Y-104322571D01*
X107767523Y-104417809D01*
G04 #@! TO.C,R25*
X109100857Y-103449380D02*
X109434190Y-102973190D01*
X109672285Y-103449380D02*
X109672285Y-102449380D01*
X109291333Y-102449380D01*
X109196095Y-102497000D01*
X109148476Y-102544619D01*
X109100857Y-102639857D01*
X109100857Y-102782714D01*
X109148476Y-102877952D01*
X109196095Y-102925571D01*
X109291333Y-102973190D01*
X109672285Y-102973190D01*
X108719904Y-102544619D02*
X108672285Y-102497000D01*
X108577047Y-102449380D01*
X108338952Y-102449380D01*
X108243714Y-102497000D01*
X108196095Y-102544619D01*
X108148476Y-102639857D01*
X108148476Y-102735095D01*
X108196095Y-102877952D01*
X108767523Y-103449380D01*
X108148476Y-103449380D01*
X107243714Y-102449380D02*
X107719904Y-102449380D01*
X107767523Y-102925571D01*
X107719904Y-102877952D01*
X107624666Y-102830333D01*
X107386571Y-102830333D01*
X107291333Y-102877952D01*
X107243714Y-102925571D01*
X107196095Y-103020809D01*
X107196095Y-103258904D01*
X107243714Y-103354142D01*
X107291333Y-103401761D01*
X107386571Y-103449380D01*
X107624666Y-103449380D01*
X107719904Y-103401761D01*
X107767523Y-103354142D01*
G04 #@! TO.C,R24*
X109100857Y-107640380D02*
X109434190Y-107164190D01*
X109672285Y-107640380D02*
X109672285Y-106640380D01*
X109291333Y-106640380D01*
X109196095Y-106688000D01*
X109148476Y-106735619D01*
X109100857Y-106830857D01*
X109100857Y-106973714D01*
X109148476Y-107068952D01*
X109196095Y-107116571D01*
X109291333Y-107164190D01*
X109672285Y-107164190D01*
X108719904Y-106735619D02*
X108672285Y-106688000D01*
X108577047Y-106640380D01*
X108338952Y-106640380D01*
X108243714Y-106688000D01*
X108196095Y-106735619D01*
X108148476Y-106830857D01*
X108148476Y-106926095D01*
X108196095Y-107068952D01*
X108767523Y-107640380D01*
X108148476Y-107640380D01*
X107291333Y-106973714D02*
X107291333Y-107640380D01*
X107529428Y-106592761D02*
X107767523Y-107307047D01*
X107148476Y-107307047D01*
G04 #@! TO.C,R23*
X109100857Y-106243380D02*
X109434190Y-105767190D01*
X109672285Y-106243380D02*
X109672285Y-105243380D01*
X109291333Y-105243380D01*
X109196095Y-105291000D01*
X109148476Y-105338619D01*
X109100857Y-105433857D01*
X109100857Y-105576714D01*
X109148476Y-105671952D01*
X109196095Y-105719571D01*
X109291333Y-105767190D01*
X109672285Y-105767190D01*
X108719904Y-105338619D02*
X108672285Y-105291000D01*
X108577047Y-105243380D01*
X108338952Y-105243380D01*
X108243714Y-105291000D01*
X108196095Y-105338619D01*
X108148476Y-105433857D01*
X108148476Y-105529095D01*
X108196095Y-105671952D01*
X108767523Y-106243380D01*
X108148476Y-106243380D01*
X107815142Y-105243380D02*
X107196095Y-105243380D01*
X107529428Y-105624333D01*
X107386571Y-105624333D01*
X107291333Y-105671952D01*
X107243714Y-105719571D01*
X107196095Y-105814809D01*
X107196095Y-106052904D01*
X107243714Y-106148142D01*
X107291333Y-106195761D01*
X107386571Y-106243380D01*
X107672285Y-106243380D01*
X107767523Y-106195761D01*
X107815142Y-106148142D01*
G04 #@! TO.C,R22*
X109100857Y-110434380D02*
X109434190Y-109958190D01*
X109672285Y-110434380D02*
X109672285Y-109434380D01*
X109291333Y-109434380D01*
X109196095Y-109482000D01*
X109148476Y-109529619D01*
X109100857Y-109624857D01*
X109100857Y-109767714D01*
X109148476Y-109862952D01*
X109196095Y-109910571D01*
X109291333Y-109958190D01*
X109672285Y-109958190D01*
X108719904Y-109529619D02*
X108672285Y-109482000D01*
X108577047Y-109434380D01*
X108338952Y-109434380D01*
X108243714Y-109482000D01*
X108196095Y-109529619D01*
X108148476Y-109624857D01*
X108148476Y-109720095D01*
X108196095Y-109862952D01*
X108767523Y-110434380D01*
X108148476Y-110434380D01*
X107767523Y-109529619D02*
X107719904Y-109482000D01*
X107624666Y-109434380D01*
X107386571Y-109434380D01*
X107291333Y-109482000D01*
X107243714Y-109529619D01*
X107196095Y-109624857D01*
X107196095Y-109720095D01*
X107243714Y-109862952D01*
X107815142Y-110434380D01*
X107196095Y-110434380D01*
G04 #@! TO.C,R21*
X109100857Y-109037380D02*
X109434190Y-108561190D01*
X109672285Y-109037380D02*
X109672285Y-108037380D01*
X109291333Y-108037380D01*
X109196095Y-108085000D01*
X109148476Y-108132619D01*
X109100857Y-108227857D01*
X109100857Y-108370714D01*
X109148476Y-108465952D01*
X109196095Y-108513571D01*
X109291333Y-108561190D01*
X109672285Y-108561190D01*
X108719904Y-108132619D02*
X108672285Y-108085000D01*
X108577047Y-108037380D01*
X108338952Y-108037380D01*
X108243714Y-108085000D01*
X108196095Y-108132619D01*
X108148476Y-108227857D01*
X108148476Y-108323095D01*
X108196095Y-108465952D01*
X108767523Y-109037380D01*
X108148476Y-109037380D01*
X107196095Y-109037380D02*
X107767523Y-109037380D01*
X107481809Y-109037380D02*
X107481809Y-108037380D01*
X107577047Y-108180238D01*
X107672285Y-108275476D01*
X107767523Y-108323095D01*
G04 #@! TO.C,TP5*
X78439904Y-110336380D02*
X77868476Y-110336380D01*
X78154190Y-111336380D02*
X78154190Y-110336380D01*
X77535142Y-111336380D02*
X77535142Y-110336380D01*
X77154190Y-110336380D01*
X77058952Y-110384000D01*
X77011333Y-110431619D01*
X76963714Y-110526857D01*
X76963714Y-110669714D01*
X77011333Y-110764952D01*
X77058952Y-110812571D01*
X77154190Y-110860190D01*
X77535142Y-110860190D01*
X76058952Y-110336380D02*
X76535142Y-110336380D01*
X76582761Y-110812571D01*
X76535142Y-110764952D01*
X76439904Y-110717333D01*
X76201809Y-110717333D01*
X76106571Y-110764952D01*
X76058952Y-110812571D01*
X76011333Y-110907809D01*
X76011333Y-111145904D01*
X76058952Y-111241142D01*
X76106571Y-111288761D01*
X76201809Y-111336380D01*
X76439904Y-111336380D01*
X76535142Y-111288761D01*
X76582761Y-111241142D01*
G04 #@! TO.C,TP4*
X78439904Y-112368380D02*
X77868476Y-112368380D01*
X78154190Y-113368380D02*
X78154190Y-112368380D01*
X77535142Y-113368380D02*
X77535142Y-112368380D01*
X77154190Y-112368380D01*
X77058952Y-112416000D01*
X77011333Y-112463619D01*
X76963714Y-112558857D01*
X76963714Y-112701714D01*
X77011333Y-112796952D01*
X77058952Y-112844571D01*
X77154190Y-112892190D01*
X77535142Y-112892190D01*
X76106571Y-112701714D02*
X76106571Y-113368380D01*
X76344666Y-112320761D02*
X76582761Y-113035047D01*
X75963714Y-113035047D01*
G04 #@! TO.C,TP3*
X99051904Y-107021380D02*
X98480476Y-107021380D01*
X98766190Y-108021380D02*
X98766190Y-107021380D01*
X98147142Y-108021380D02*
X98147142Y-107021380D01*
X97766190Y-107021380D01*
X97670952Y-107069000D01*
X97623333Y-107116619D01*
X97575714Y-107211857D01*
X97575714Y-107354714D01*
X97623333Y-107449952D01*
X97670952Y-107497571D01*
X97766190Y-107545190D01*
X98147142Y-107545190D01*
X97242380Y-107021380D02*
X96623333Y-107021380D01*
X96956666Y-107402333D01*
X96813809Y-107402333D01*
X96718571Y-107449952D01*
X96670952Y-107497571D01*
X96623333Y-107592809D01*
X96623333Y-107830904D01*
X96670952Y-107926142D01*
X96718571Y-107973761D01*
X96813809Y-108021380D01*
X97099523Y-108021380D01*
X97194761Y-107973761D01*
X97242380Y-107926142D01*
G04 #@! TO.C,TP2*
X104385904Y-109688380D02*
X103814476Y-109688380D01*
X104100190Y-110688380D02*
X104100190Y-109688380D01*
X103481142Y-110688380D02*
X103481142Y-109688380D01*
X103100190Y-109688380D01*
X103004952Y-109736000D01*
X102957333Y-109783619D01*
X102909714Y-109878857D01*
X102909714Y-110021714D01*
X102957333Y-110116952D01*
X103004952Y-110164571D01*
X103100190Y-110212190D01*
X103481142Y-110212190D01*
X102528761Y-109783619D02*
X102481142Y-109736000D01*
X102385904Y-109688380D01*
X102147809Y-109688380D01*
X102052571Y-109736000D01*
X102004952Y-109783619D01*
X101957333Y-109878857D01*
X101957333Y-109974095D01*
X102004952Y-110116952D01*
X102576380Y-110688380D01*
X101957333Y-110688380D01*
G04 #@! TO.C,TP1*
X104258904Y-107021380D02*
X103687476Y-107021380D01*
X103973190Y-108021380D02*
X103973190Y-107021380D01*
X103354142Y-108021380D02*
X103354142Y-107021380D01*
X102973190Y-107021380D01*
X102877952Y-107069000D01*
X102830333Y-107116619D01*
X102782714Y-107211857D01*
X102782714Y-107354714D01*
X102830333Y-107449952D01*
X102877952Y-107497571D01*
X102973190Y-107545190D01*
X103354142Y-107545190D01*
X101830333Y-108021380D02*
X102401761Y-108021380D01*
X102116047Y-108021380D02*
X102116047Y-107021380D01*
X102211285Y-107164238D01*
X102306523Y-107259476D01*
X102401761Y-107307095D01*
G04 #@! TO.C,J8*
D15*
X89408000Y-105223428D02*
X89408000Y-106312000D01*
X89480571Y-106529714D01*
X89625714Y-106674857D01*
X89843428Y-106747428D01*
X89988571Y-106747428D01*
X88464571Y-105876571D02*
X88609714Y-105804000D01*
X88682285Y-105731428D01*
X88754857Y-105586285D01*
X88754857Y-105513714D01*
X88682285Y-105368571D01*
X88609714Y-105296000D01*
X88464571Y-105223428D01*
X88174285Y-105223428D01*
X88029142Y-105296000D01*
X87956571Y-105368571D01*
X87884000Y-105513714D01*
X87884000Y-105586285D01*
X87956571Y-105731428D01*
X88029142Y-105804000D01*
X88174285Y-105876571D01*
X88464571Y-105876571D01*
X88609714Y-105949142D01*
X88682285Y-106021714D01*
X88754857Y-106166857D01*
X88754857Y-106457142D01*
X88682285Y-106602285D01*
X88609714Y-106674857D01*
X88464571Y-106747428D01*
X88174285Y-106747428D01*
X88029142Y-106674857D01*
X87956571Y-106602285D01*
X87884000Y-106457142D01*
X87884000Y-106166857D01*
X87956571Y-106021714D01*
X88029142Y-105949142D01*
X88174285Y-105876571D01*
G04 #@! TD*
M02*
